<svg width="139" height="33" viewBox="0 0 139 33" fill="none" xmlns="http://www.w3.org/2000/svg">
<g clip-path="url(#clip0_2_449)">
<path d="M39.8998 23.7H48.9819V21.1138H42.6692V9.03815H39.8998V23.7Z" fill="black"/>
<path d="M54.4397 24.0054C55.5393 24.0054 56.5066 23.761 57.3415 23.2723C58.1832 22.7768 58.8382 22.0946 59.3066 21.2258C59.7817 20.3501 60.0193 19.3421 60.0193 18.2018C60.0193 17.0682 59.7851 16.067 59.3168 15.1981C58.8484 14.3225 58.1933 13.6369 57.3517 13.1414C56.5168 12.6459 55.5461 12.3981 54.4397 12.3981C53.3536 12.3981 52.3931 12.6425 51.5582 13.1313C50.7233 13.62 50.0683 14.3021 49.5931 15.1778C49.118 16.0466 48.8804 17.0546 48.8804 18.2018C48.8804 19.3353 49.1112 20.34 49.5728 21.2156C50.0411 22.0845 50.6928 22.7666 51.5277 23.2621C52.3626 23.7577 53.3333 24.0054 54.4397 24.0054ZM54.4397 21.4193C53.5776 21.4193 52.9226 21.1308 52.4746 20.5538C52.0333 19.9701 51.8128 19.1861 51.8128 18.2018C51.8128 17.2447 52.0232 16.4709 52.444 15.8803C52.8716 15.283 53.5369 14.9843 54.4397 14.9843C55.3153 14.9843 55.9737 15.2762 56.4149 15.86C56.8629 16.4437 57.0869 17.2243 57.0869 18.2018C57.0869 19.1453 56.8664 19.9191 56.4251 20.5233C55.9907 21.1205 55.3289 21.4193 54.4397 21.4193Z" fill="black"/>
<path d="M65.4961 24.0054C66.0121 24.0054 66.4872 23.9443 66.9217 23.8221C67.3629 23.7 67.7633 23.5269 68.1231 23.3029V24.4127C68.1367 24.82 68.0314 25.1593 67.8074 25.4309C67.5902 25.7092 67.2984 25.9162 66.9318 26.052C66.5653 26.1945 66.1749 26.2658 65.7609 26.2658C65.374 26.2658 65.0142 26.1809 64.6817 26.0113C64.3558 25.8416 64.1046 25.5938 63.9281 25.268L61.3624 26.5101C61.7832 27.2229 62.3839 27.7965 63.1645 28.2309C63.9452 28.6721 64.8038 28.8927 65.7405 28.8927C66.5483 28.8927 67.2984 28.784 67.9907 28.5669C68.6831 28.3565 69.2669 28.0341 69.742 27.5996C70.2239 27.1652 70.5532 26.612 70.7297 25.94C70.7907 25.7024 70.8314 25.4614 70.8518 25.217C70.8789 24.9795 70.8925 24.7249 70.8925 24.4534V12.7036H68.4693V13.3145C68.0959 13.0226 67.6717 12.7986 67.1965 12.6425C66.7281 12.4796 66.2089 12.3981 65.6387 12.3981C64.5866 12.3981 63.6702 12.6493 62.8897 13.1516C62.109 13.6539 61.5015 14.3429 61.0671 15.2185C60.6394 16.0873 60.4257 17.0818 60.4257 18.2018C60.4257 19.3014 60.6361 20.289 61.0569 21.1647C61.4845 22.0403 62.0785 22.7327 62.8387 23.2418C63.5989 23.7509 64.4848 24.0054 65.4961 24.0054ZM65.9441 21.5414C65.3469 21.5414 64.8581 21.3921 64.478 21.0934C64.0979 20.7948 63.8161 20.3943 63.6329 19.892C63.4497 19.3829 63.358 18.8195 63.358 18.2018C63.358 17.5909 63.453 17.0343 63.6431 16.532C63.8332 16.0229 64.125 15.619 64.5187 15.3203C64.9192 15.0149 65.4283 14.8621 66.046 14.8621C66.9149 14.8621 67.5359 15.171 67.9093 15.7887C68.2826 16.3996 68.4693 17.204 68.4693 18.2018C68.4693 19.1996 68.2792 20.0073 67.8991 20.625C67.5257 21.236 66.8741 21.5414 65.9441 21.5414Z" fill="black"/>
<path d="M77.4705 24.0054C78.5702 24.0054 79.5375 23.761 80.3724 23.2723C81.2139 22.7768 81.8691 22.0946 82.3371 21.2258C82.8123 20.3501 83.0499 19.3421 83.0499 18.2018C83.0499 17.0682 82.8163 16.067 82.3475 15.1981C81.8795 14.3225 81.2243 13.6369 80.3825 13.1414C79.5477 12.6459 78.5769 12.3981 77.4705 12.3981C76.3845 12.3981 75.424 12.6425 74.5891 13.1313C73.7542 13.62 73.0992 14.3021 72.624 15.1778C72.1489 16.0466 71.9113 17.0546 71.9113 18.2018C71.9113 19.3353 72.1421 20.34 72.6037 21.2156C73.072 22.0845 73.7237 22.7666 74.5585 23.2621C75.3935 23.7577 76.3641 24.0054 77.4705 24.0054ZM77.4705 21.4193C76.6085 21.4193 75.9534 21.1308 75.5054 20.5538C75.0642 19.9701 74.8437 19.1861 74.8437 18.2018C74.8437 17.2447 75.0541 16.4709 75.4749 15.8803C75.9025 15.283 76.5677 14.9843 77.4705 14.9843C78.3462 14.9843 79.0046 15.2762 79.4458 15.86C79.8938 16.4437 80.1178 17.2243 80.1178 18.2018C80.1178 19.1453 79.8972 19.9191 79.456 20.5233C79.0216 21.1205 78.3597 21.4193 77.4705 21.4193Z" fill="black"/>
<path d="M84.2706 11.1763H87.0402V8.73273H84.2706V11.1763ZM84.2706 23.7H87.0402V12.7036H84.2706V23.7Z" fill="black"/>
<path d="M88.8507 28.5873H91.6403V23.3029C92.0003 23.5269 92.3971 23.7 92.8315 23.8221C93.2731 23.9443 93.7515 24.0054 94.2675 24.0054C95.2787 24.0054 96.1651 23.7509 96.9251 23.2418C97.6851 22.7327 98.2755 22.0403 98.6963 21.1647C99.1243 20.289 99.3379 19.3014 99.3379 18.2018C99.3379 17.0818 99.1211 16.0873 98.6867 15.2185C98.2587 14.3429 97.6547 13.6539 96.8739 13.1516C96.0931 12.6493 95.1771 12.3981 94.1251 12.3981C93.5547 12.3981 93.0323 12.4796 92.5571 12.6425C92.0883 12.7986 91.6675 13.0226 91.2947 13.3145V12.7036H88.8507V28.5873ZM93.8195 21.5414C92.8963 21.5414 92.2451 21.236 91.8643 20.625C91.4843 20.0073 91.2947 19.1996 91.2947 18.2018C91.2947 17.204 91.4811 16.3996 91.8547 15.7887C92.2347 15.171 92.8555 14.8621 93.7179 14.8621C94.3355 14.8621 94.8411 15.0149 95.2347 15.3203C95.6355 15.619 95.9307 16.0229 96.1203 16.532C96.3107 17.0343 96.4059 17.5909 96.4059 18.2018C96.4059 18.8195 96.3139 19.3829 96.1307 19.892C95.9475 20.3943 95.6659 20.7948 95.2859 21.0934C94.9059 21.3921 94.4171 21.5414 93.8195 21.5414Z" fill="black"/>
<path d="M104.356 24.0054C105.794 24.0054 106.921 23.683 107.736 23.0381C108.55 22.3933 108.957 21.5075 108.957 20.3807C108.957 19.5254 108.692 18.8501 108.164 18.3545C107.64 17.859 106.752 17.4483 105.496 17.1225C104.64 16.9053 104.002 16.7288 103.581 16.593C103.168 16.4573 102.892 16.3249 102.756 16.196C102.628 16.067 102.564 15.9075 102.564 15.7174C102.564 15.3984 102.716 15.1541 103.021 14.9843C103.334 14.8146 103.744 14.7468 104.253 14.7807C105.332 14.8621 105.924 15.3237 106.025 16.1654L108.856 15.6563C108.713 14.6585 108.224 13.8677 107.389 13.284C106.555 12.6934 105.489 12.3981 104.192 12.3981C102.862 12.3981 101.8 12.7104 101.005 13.3349C100.212 13.9593 99.8139 14.801 99.8139 15.86C99.8139 16.7017 100.089 17.3669 100.639 17.8556C101.188 18.3376 102.136 18.7516 103.48 19.0978C104.274 19.3082 104.857 19.4779 105.231 19.6069C105.611 19.7358 105.856 19.8682 105.964 20.004C106.072 20.1329 106.127 20.3061 106.127 20.5233C106.127 20.8694 105.991 21.1409 105.72 21.3378C105.448 21.5278 105.061 21.6229 104.559 21.6229C103.948 21.6229 103.442 21.4769 103.042 21.185C102.648 20.8932 102.393 20.4893 102.278 19.9734L99.4475 20.401C99.6307 21.5482 100.147 22.4374 100.996 23.0687C101.851 23.6932 102.971 24.0054 104.356 24.0054Z" fill="black"/>
<path d="M114.066 24.0259C114.86 24.0259 115.552 23.8935 116.143 23.6287C116.734 23.364 117.229 23.0111 117.63 22.5699V23.7H120.073V12.7036H117.283V18.2833C117.283 18.9621 117.205 19.5119 117.049 19.9327C116.9 20.3468 116.707 20.6624 116.469 20.8796C116.231 21.0901 115.977 21.2326 115.705 21.3073C115.434 21.3819 115.179 21.4193 114.942 21.4193C114.351 21.4193 113.893 21.2869 113.567 21.0222C113.248 20.7575 113.017 20.4283 112.875 20.0346C112.732 19.6408 112.647 19.2506 112.62 18.8636C112.593 18.4699 112.579 18.1475 112.579 17.8963V12.7036H109.769V18.8739C109.769 19.0571 109.783 19.349 109.81 19.7495C109.837 20.1499 109.915 20.5946 110.044 21.0833C110.173 21.5652 110.387 22.0302 110.686 22.4782C110.991 22.9262 111.415 23.2961 111.959 23.588C112.501 23.8799 113.204 24.0259 114.066 24.0259Z" fill="black"/>
<path d="M121.677 23.7H124.467V17.0411C124.467 16.4099 124.639 15.8974 124.986 15.5036C125.339 15.1031 125.803 14.9029 126.381 14.9029C126.985 14.9029 127.457 15.1066 127.796 15.5139C128.142 15.9143 128.315 16.4777 128.315 17.204V23.7H131.085V17.0411C131.085 16.4099 131.258 15.8974 131.604 15.5036C131.957 15.1031 132.422 14.9029 132.999 14.9029C133.603 14.9029 134.075 15.1066 134.414 15.5139C134.76 15.9143 134.934 16.4777 134.934 17.204V23.7H137.703V16.4709C137.703 15.2695 137.38 14.2988 136.735 13.5589C136.098 12.8123 135.151 12.4389 133.895 12.4389C133.189 12.4389 132.541 12.5916 131.95 12.8971C131.359 13.2026 130.888 13.62 130.535 14.1495C130.25 13.6336 129.843 13.2195 129.313 12.9073C128.783 12.5951 128.125 12.4389 127.338 12.4389C126.672 12.4389 126.062 12.5713 125.505 12.836C124.948 13.0939 124.487 13.4503 124.12 13.9051V12.7036H121.677V23.7Z" fill="black"/>
<path d="M16.6707 0.5C7.83409 0.5 0.670654 7.66344 0.670654 16.5C9.50721 16.5 16.6707 9.33656 16.6707 0.5Z" fill="#EEBA33"/>
<path d="M16.6707 32.5C25.5072 32.5 32.6707 25.3366 32.6707 16.5C23.8341 16.5 16.6707 23.6634 16.6707 32.5Z" fill="#EEBA33"/>
<path d="M16.6707 0.5C25.5072 0.5 32.6707 7.66344 32.6707 16.5C23.8341 16.5 16.6707 9.33656 16.6707 0.5Z" fill="#EEBA33"/>
<path d="M16.6707 32.5C7.83409 32.5 0.670654 25.3366 0.670654 16.5C9.50721 16.5 16.6707 23.6634 16.6707 32.5Z" fill="#EEBA33"/>
</g>
<defs>
<clipPath id="clip0_2_449">
<rect width="137.6" height="32" fill="white" transform="translate(0.670654 0.5)"/>
</clipPath>
</defs>
</svg>
