<svg width="133" height="35" viewBox="0 0 133 35" fill="none" xmlns="http://www.w3.org/2000/svg">
<path d="M30.7905 12.25C31.1505 12.25 31.2705 12.38 31.2705 12.73V20.65H35.3405C35.6905 20.65 35.8205 20.78 35.8205 21.13V21.83C35.8205 22.18 35.6905 22.31 35.3405 22.31H29.9805C29.6305 22.31 29.4905 22.18 29.4905 21.83V12.73C29.4905 12.38 29.6305 12.25 29.9805 12.25H30.7905Z" fill="black"/>
<path d="M39.3706 15.74C39.3706 13.43 40.8306 12.04 43.3706 12.04C45.9106 12.04 47.3706 13.43 47.3706 15.74V18.82C47.3706 21.13 45.9006 22.52 43.3706 22.52C40.8406 22.52 39.3706 21.13 39.3706 18.82V15.74ZM45.6906 15.74C45.6906 14.44 44.8806 13.74 43.4206 13.74C41.9606 13.74 41.1606 14.45 41.1606 15.74V18.84C41.1606 20.15 41.9606 20.84 43.4206 20.84C44.8806 20.84 45.6906 20.12 45.6906 18.84V15.74Z" fill="black"/>
<path d="M59.2804 16.8C59.6704 16.8 59.7604 16.93 59.7604 17.28V19.18C59.771 19.6275 59.6813 20.0718 59.4979 20.4801C59.3144 20.8885 59.042 21.2506 58.7004 21.54C57.8521 22.2155 56.7825 22.5506 55.7004 22.48C53.1104 22.48 51.7004 21.09 51.7004 18.78V15.68C51.7004 13.4 53.1604 12 55.7004 12C57.7004 12 59.0004 12.79 59.5504 14.37C59.5812 14.4294 59.5977 14.4951 59.5986 14.5619C59.5995 14.6288 59.5848 14.695 59.5557 14.7551C59.5266 14.8153 59.4838 14.8679 59.4308 14.9087C59.3778 14.9494 59.316 14.9773 59.2504 14.99L58.4704 15.26C58.1304 15.38 57.9904 15.31 57.8704 14.96C57.7047 14.5329 57.4014 14.1731 57.0084 13.9377C56.6154 13.7023 56.1552 13.6045 55.7004 13.66C54.2304 13.66 53.4304 14.37 53.4304 15.66V18.84C53.4304 20.15 54.2404 20.84 55.7004 20.84C57.1604 20.84 58.0604 20.17 58.0604 19.19V18.45H55.8904C55.5304 18.45 55.4004 18.31 55.4004 17.96V17.28C55.4004 16.93 55.5304 16.8 55.8904 16.8H59.2804Z" fill="black"/>
<path d="M63.8906 15.74C63.8906 13.43 65.3506 12.04 67.8906 12.04C70.4306 12.04 71.8906 13.43 71.8906 15.74V18.82C71.8906 21.13 70.4206 22.52 67.8906 22.52C65.3606 22.52 63.8906 21.13 63.8906 18.82V15.74ZM70.2006 15.74C70.2006 14.44 69.3906 13.74 67.9406 13.74C66.4906 13.74 65.6706 14.45 65.6706 15.74V18.84C65.6706 20.15 66.4806 20.84 67.9406 20.84C69.4006 20.84 70.2006 20.12 70.2006 18.84V15.74Z" fill="black"/>
<path d="M76.6006 12.54C76.6006 12.32 76.6706 12.25 76.8906 12.25H77.3506C77.5706 12.25 77.6206 12.32 77.6206 12.54V22.02C77.6206 22.24 77.6206 22.31 77.3506 22.31H76.8906C76.6706 22.31 76.6006 22.24 76.6006 22.02V12.54Z" fill="black"/>
<path d="M86.7304 12.25C87.5632 12.25 88.3618 12.5808 88.9507 13.1697C89.5396 13.7585 89.8704 14.5572 89.8704 15.39C89.8704 16.2228 89.5396 17.0215 88.9507 17.6103C88.3618 18.1992 87.5632 18.53 86.7304 18.53H83.7304V22.02C83.7304 22.24 83.6804 22.31 83.4704 22.31H83.0005C82.7905 22.31 82.7104 22.24 82.7104 22.02V12.54C82.7104 12.32 82.7905 12.25 83.0005 12.25H86.7304ZM86.6404 17.54C86.9267 17.54 87.2102 17.4836 87.4747 17.3741C87.7391 17.2645 87.9795 17.1039 88.1819 16.9015C88.3843 16.6991 88.5449 16.4587 88.6545 16.1943C88.764 15.9298 88.8204 15.6463 88.8204 15.36C88.8204 15.0737 88.764 14.7902 88.6545 14.5257C88.5449 14.2613 88.3843 14.0209 88.1819 13.8185C87.9795 13.6161 87.7391 13.4555 87.4747 13.3459C87.2102 13.2364 86.9267 13.18 86.6404 13.18H83.6404V17.54H86.6404Z" fill="black"/>
<path d="M97.6806 12.05C98.4527 11.9648 99.2316 12.1309 99.9018 12.5236C100.572 12.9164 101.098 13.5148 101.401 14.23C101.481 14.39 101.401 14.52 101.241 14.6L100.801 14.8C100.621 14.87 100.551 14.86 100.441 14.67C100.214 14.1392 99.8245 13.6942 99.3283 13.3994C98.8322 13.1046 98.2551 12.9752 97.6806 13.03C95.9906 13.03 95.0706 13.7 95.0706 14.9C95.0608 15.2667 95.1839 15.6247 95.4174 15.9077C95.6508 16.1907 95.9787 16.3798 96.3406 16.44C96.8784 16.6154 97.4361 16.7229 98.0006 16.76C98.6839 16.7964 99.358 16.9346 100.001 17.17C100.494 17.3259 100.918 17.6465 101.202 18.0781C101.486 18.5097 101.613 19.0259 101.561 19.54C101.561 21.41 100.201 22.54 97.7006 22.54C96.8806 22.6338 96.0532 22.4438 95.3563 22.0016C94.6594 21.5595 94.135 20.8918 93.8706 20.11C93.8529 20.0744 93.8434 20.0353 93.8426 19.9955C93.8418 19.9557 93.8499 19.9163 93.8661 19.88C93.8823 19.8437 93.9064 19.8114 93.9366 19.7855C93.9667 19.7595 94.0022 19.7406 94.0406 19.73L94.4806 19.57C94.5152 19.5558 94.5525 19.549 94.5899 19.55C94.6273 19.551 94.6641 19.5598 94.698 19.5758C94.7318 19.5918 94.762 19.6146 94.7865 19.6429C94.8111 19.6712 94.8295 19.7042 94.8406 19.74C95.0643 20.3049 95.4621 20.7839 95.9763 21.1076C96.4905 21.4312 97.0945 21.5827 97.7006 21.54C99.5906 21.54 100.521 20.88 100.521 19.54C100.539 19.1878 100.431 18.8407 100.216 18.5605C100.002 18.2804 99.6951 18.0853 99.3506 18.01C98.8332 17.8557 98.2996 17.7617 97.7606 17.73L96.6806 17.59C96.3426 17.5183 96.0088 17.4281 95.6806 17.32C95.3564 17.2221 95.0542 17.0625 94.7906 16.85C94.5253 16.6098 94.3162 16.3142 94.1779 15.9841C94.0397 15.654 93.9757 15.2976 93.9906 14.94C94.0606 13.19 95.3706 12.05 97.6806 12.05Z" fill="black"/>
<path d="M106.95 18.89C106.992 19.5972 107.303 20.2615 107.819 20.7472C108.335 21.2329 109.017 21.5033 109.725 21.5033C110.433 21.5033 111.115 21.2329 111.631 20.7472C112.147 20.2615 112.457 19.5972 112.5 18.89V12.54C112.5 12.32 112.57 12.25 112.79 12.25H113.25C113.47 12.25 113.54 12.32 113.54 12.54V18.88C113.54 21.15 112.2 22.52 109.73 22.52C107.26 22.52 105.92 21.15 105.92 18.88V12.54C105.92 12.32 105.99 12.25 106.2 12.25H106.67C106.88 12.25 106.95 12.32 106.95 12.54V18.89Z" fill="black"/>
<path d="M127.34 12.25C127.561 12.25 127.631 12.32 127.631 12.54V22.02C127.631 22.24 127.561 22.31 127.34 22.31H126.921C126.711 22.31 126.641 22.24 126.641 22.02V16.25C126.641 15.4105 126.698 14.5719 126.811 13.74H126.751C126.439 14.5007 126.073 15.2391 125.66 15.95L123.51 19.74C123.484 19.8058 123.439 19.862 123.38 19.9013C123.321 19.9405 123.252 19.961 123.181 19.96H122.9C122.828 19.9604 122.759 19.9397 122.698 19.9007C122.638 19.8616 122.59 19.8058 122.561 19.74L120.381 15.91C119.994 15.2093 119.66 14.4806 119.381 13.73H119.321C119.423 14.5695 119.476 15.4143 119.48 16.26V22.02C119.48 22.24 119.41 22.31 119.19 22.31H118.8C118.58 22.31 118.51 22.24 118.51 22.02V12.54C118.51 12.32 118.58 12.25 118.8 12.25H119.16C119.242 12.2424 119.325 12.2603 119.396 12.3015C119.468 12.3427 119.526 12.4051 119.561 12.48L123.061 18.7L126.54 12.54C126.65 12.33 126.711 12.3 126.931 12.3L127.34 12.25Z" fill="black"/>
<path d="M13.0005 20.79V28.02C13.0005 28.2972 12.8904 28.563 12.6944 28.7589C12.4985 28.9549 12.2327 29.065 11.9555 29.065C11.6784 29.065 11.4126 28.9549 11.2166 28.7589C11.0206 28.563 10.9105 28.2972 10.9105 28.02V20.8C11.2015 21.0125 11.5503 21.1311 11.9105 21.14C12.3031 21.1512 12.6878 21.0277 13.0005 20.79ZM21.9005 18.7C21.6353 18.7 21.3809 18.8054 21.1934 18.9929C21.0059 19.1804 20.9005 19.4348 20.9005 19.7V20.96C20.9005 21.2372 21.0106 21.503 21.2066 21.6989C21.4025 21.8949 21.6683 22.005 21.9455 22.005C22.2227 22.005 22.4885 21.8949 22.6844 21.6989C22.8804 21.503 22.9905 21.2372 22.9905 20.96V19.75C22.9983 19.6066 22.9751 19.4632 22.9225 19.3296C22.8699 19.196 22.7892 19.0752 22.6857 18.9756C22.5823 18.876 22.4586 18.7998 22.3232 18.7522C22.1877 18.7047 22.0435 18.6869 21.9005 18.7ZM8.64051 23.53C8.28068 23.5192 7.93234 23.4008 7.64051 23.19V30.44C7.64051 30.7185 7.75113 30.9856 7.94805 31.1825C8.14496 31.3794 8.41203 31.49 8.69051 31.49C8.96899 31.49 9.23606 31.3794 9.43297 31.1825C9.62989 30.9856 9.74051 30.7185 9.74051 30.44V23.24C9.41396 23.4511 9.02867 23.5527 8.64051 23.53ZM18.6405 16.53C18.505 16.5232 18.3696 16.5441 18.2424 16.5913C18.1153 16.6385 17.9991 16.7111 17.9008 16.8046C17.8026 16.8982 17.7245 17.0107 17.6711 17.1354C17.6178 17.2601 17.5903 17.3944 17.5905 17.53V23.1C17.5905 23.3785 17.7011 23.6456 17.898 23.8425C18.095 24.0394 18.362 24.15 18.6405 24.15C18.919 24.15 19.1861 24.0394 19.383 23.8425C19.5799 23.6456 19.6905 23.3785 19.6905 23.1V17.6C19.6985 17.4557 19.6751 17.3114 19.6219 17.177C19.5687 17.0426 19.4871 16.9213 19.3825 16.8215C19.2779 16.7217 19.153 16.6457 19.0163 16.5989C18.8796 16.552 18.7343 16.5353 18.5905 16.55L18.6405 16.53ZM15.3205 18.67C14.9438 18.6674 14.5772 18.5487 14.2705 18.33V25.6C14.2705 25.8785 14.3811 26.1456 14.578 26.3425C14.775 26.5394 15.042 26.65 15.3205 26.65C15.599 26.65 15.866 26.5394 16.063 26.3425C16.2599 26.1456 16.3705 25.8785 16.3705 25.6V18.34C16.0533 18.5763 15.666 18.6995 15.2705 18.69L15.3205 18.67ZM6.37051 24.24V3.93C6.36788 3.68243 6.26768 3.44591 6.09168 3.27178C5.91568 3.09765 5.67809 2.99999 5.43051 3H5.21051C4.96293 2.99999 4.72534 3.09765 4.54934 3.27178C4.37334 3.44591 4.27314 3.68243 4.27051 3.93V24.24C4.27051 24.4893 4.36955 24.7284 4.54583 24.9047C4.72211 25.081 4.96121 25.18 5.21051 25.18H5.43051C5.67982 25.18 5.91891 25.081 6.09519 24.9047C6.27148 24.7284 6.37051 24.4893 6.37051 24.24ZM8.75051 22.76H8.53051C8.28121 22.76 8.04211 22.661 7.86583 22.4847C7.68955 22.3084 7.59051 22.0693 7.59051 21.82V6.35C7.59315 6.10244 7.69334 5.8659 7.86934 5.69178C8.04534 5.51765 8.28293 5.41999 8.53051 5.42H8.75051C8.99809 5.41999 9.23568 5.51765 9.41168 5.69178C9.58768 5.8659 9.68788 6.10244 9.69051 6.35V21.84C9.69051 22.0893 9.59147 22.3284 9.41519 22.5047C9.23891 22.681 8.99981 22.78 8.75051 22.78V22.76ZM12.0605 20.38H11.8305C11.5839 20.38 11.3473 20.282 11.1729 20.1076C10.9985 19.9332 10.9005 19.6967 10.9005 19.45V8.75C10.8992 8.62703 10.9223 8.50502 10.9684 8.39103C11.0145 8.27704 11.0828 8.17334 11.1693 8.08592C11.2558 7.9985 11.3588 7.9291 11.4723 7.88174C11.5858 7.83438 11.7075 7.80999 11.8305 7.81H12.0605C12.3081 7.81264 12.5446 7.91283 12.7187 8.08883C12.8929 8.26483 12.9905 8.50242 12.9905 8.75V19.45C12.9905 19.6967 12.8925 19.9332 12.7181 20.1076C12.5437 20.282 12.3072 20.38 12.0605 20.38ZM15.3705 17.93H15.1605C14.9129 17.93 14.6753 17.8324 14.4993 17.6582C14.3233 17.4841 14.2231 17.2476 14.2205 17V11.24C14.2123 11.1116 14.2305 10.9829 14.2741 10.8618C14.3176 10.7408 14.3856 10.6299 14.4737 10.5362C14.5618 10.4424 14.6682 10.3678 14.7864 10.3168C14.9045 10.2659 15.0318 10.2397 15.1605 10.24H15.3805C15.6298 10.24 15.8689 10.339 16.0452 10.5153C16.2215 10.6916 16.3205 10.9307 16.3205 11.18V16.98C16.3218 17.1043 16.2985 17.2276 16.2518 17.3428C16.2052 17.458 16.1362 17.5628 16.0487 17.6512C15.9613 17.7395 15.8573 17.8096 15.7425 17.8575C15.6278 17.9054 15.5048 17.93 15.3805 17.93H15.3705ZM18.6905 15.78H18.4705C18.2212 15.78 17.9821 15.681 17.8058 15.5047C17.6295 15.3284 17.5305 15.0893 17.5305 14.84V13.35C17.5331 13.1024 17.6333 12.8659 17.8093 12.6918C17.9853 12.5176 18.2229 12.42 18.4705 12.42H18.6905C18.9381 12.42 19.1757 12.5176 19.3517 12.6918C19.5277 12.8659 19.6279 13.1024 19.6305 13.35V14.84C19.6305 15.0876 19.5329 15.3252 19.3587 15.5012C19.1846 15.6772 18.9481 15.7774 18.7005 15.78H18.6905Z" fill="#74C326"/>
</svg>
