<svg width="153" height="19" viewBox="0 0 153 19" fill="none" xmlns="http://www.w3.org/2000/svg">
<path d="M76.4224 16.374H71.3024V2.68599H76.4224V16.374ZM71.8024 15.874H75.9224V3.18599H71.8024V15.874ZM83.5464 16.374H78.5294V2.68599H89.0114C90.513 2.56439 92.0084 2.98596 93.2254 3.87399C93.7493 4.3533 94.1554 4.94718 94.4119 5.60928C94.6685 6.27139 94.7686 6.98382 94.7044 7.69099C94.7792 8.91296 94.3903 10.1182 93.6154 11.066C92.6984 12.118 91.1724 12.66 89.0804 12.679C88.5534 12.693 84.6044 12.679 83.5494 12.679L83.5464 16.374ZM79.0264 15.874H83.0464V12.174H83.2974C83.3484 12.174 88.4754 12.19 89.0684 12.174C91.0174 12.157 92.4184 11.674 93.2374 10.731C93.9272 9.87344 94.2698 8.78814 94.1974 7.68999C94.2589 7.05636 94.1736 6.41708 93.9482 5.82173C93.7227 5.22638 93.3632 4.69096 92.8974 4.25699C91.769 3.44709 90.3884 3.06692 89.0044 3.18499H79.0294L79.0264 15.874ZM87.9494 9.60399H83.0124V5.87799H87.9824C88.3347 5.82931 88.6936 5.87043 89.0257 5.99752C89.3579 6.12462 89.6526 6.33357 89.8824 6.60499C90.0909 6.95193 90.1892 7.35397 90.1644 7.75799C90.1831 8.13309 90.1021 8.50646 89.9294 8.83999C89.6923 9.12587 89.3856 9.34594 89.0388 9.47904C88.6921 9.61214 88.3169 9.65379 87.9494 9.59999V9.60399ZM83.5124 9.10399H87.9494C88.7694 9.10399 89.2774 8.93299 89.5024 8.58099C89.6263 8.32514 89.6824 8.04175 89.6654 7.75799C89.6873 7.46005 89.6227 7.16213 89.4794 6.89999L89.4734 6.89099C89.2354 6.54099 88.7624 6.37799 87.9824 6.37799H83.5124V9.10399ZM103.829 16.576C99.3394 16.576 96.6594 15.461 95.6384 13.168C95.4713 12.7251 95.3579 12.2638 95.3004 11.794L95.2564 11.506H100.598L100.633 11.716C100.674 11.9292 100.765 12.1299 100.897 12.302C101.108 12.557 101.812 12.985 104.148 12.985C106.956 12.985 106.956 12.492 106.956 12.227C106.956 11.78 106.631 11.627 104.341 11.383L103.906 11.342C103.044 11.261 101.954 11.158 101.456 11.115C97.2564 10.735 95.3814 9.42999 95.3814 6.88499C95.3814 4.21199 98.5724 2.48499 103.511 2.48499C107.54 2.48499 110.136 3.54699 111.225 5.64399C111.483 6.13177 111.657 6.65998 111.738 7.20599L111.773 7.48699H106.425L106.403 7.26099C106.382 7.08437 106.307 6.91868 106.187 6.78699C105.987 6.51899 105.355 6.07599 103.393 6.07599C100.984 6.07599 100.652 6.38399 100.652 6.71599C100.652 7.15899 101.413 7.31599 103.852 7.57699C104.869 7.65999 106.504 7.82799 107.064 7.89599C110.585 8.27799 112.156 9.55099 112.156 12.025C112.157 14.1 110.712 16.576 103.829 16.576ZM95.8404 12.006C95.8905 12.3358 95.9767 12.659 96.0974 12.97C97.0274 15.059 99.5574 16.076 103.829 16.076C107.401 16.076 111.66 15.376 111.66 12.025C111.66 9.83199 110.27 8.74599 107.011 8.39299C106.451 8.32499 104.826 8.15799 103.811 8.07399C101.211 7.79199 100.154 7.64199 100.154 6.71599C100.154 5.75799 101.293 5.57599 103.395 5.57599C105.056 5.57599 106.129 5.87599 106.584 6.48099C106.708 6.63004 106.802 6.80194 106.86 6.98699H111.194C111.107 6.60023 110.969 6.22668 110.784 5.87599C109.784 3.95699 107.341 2.98499 103.513 2.98499C98.8784 2.98499 95.8834 4.51599 95.8834 6.88499C95.8834 9.14499 97.5644 10.261 101.502 10.617C102.002 10.66 103.091 10.763 103.955 10.845L104.393 10.886C106.52 11.11 107.458 11.25 107.458 12.227C107.458 13.279 106.245 13.485 104.15 13.485C102.212 13.485 100.988 13.194 100.515 12.621C100.37 12.4383 100.26 12.2296 100.191 12.006H95.8404ZM121.656 16.559C116.436 16.559 113.556 14.448 113.556 10.614V2.68599H118.608V10.614C118.608 11.929 119.785 12.683 121.836 12.683C123.796 12.683 125.013 11.896 125.013 10.631V2.68599H130.013V11.034C130.018 14.545 126.969 16.559 121.653 16.559H121.656ZM114.056 3.18599V10.614C114.056 15.352 118.814 16.059 121.656 16.059C124.594 16.059 129.521 15.406 129.521 11.034V3.18599H125.521V10.631C125.521 12.181 124.077 13.183 121.844 13.183C119.51 13.183 118.116 12.223 118.116 10.614V3.18599H114.056ZM151.201 16.374H146.433V10.194L143.729 16.374H139.57L136.894 10.206V16.374H132.109V2.68599H138.403L141.673 10.233L145.101 2.68599H151.207L151.201 16.374ZM146.933 15.874H150.701V3.18599H145.419L141.657 11.465L138.071 3.18599H132.605V15.874H136.39V7.79999L139.89 15.877H143.39L146.927 7.81199L146.933 15.874ZM6.78337 2.93599H2.22937V16.124H14.8134V12.613H6.78337V2.93599ZM24.0054 2.63599C18.1924 2.63599 15.1354 5.39099 15.1354 9.43599C15.1354 14.006 18.3444 16.324 24.0054 16.324C30.2374 16.324 32.8584 13.636 32.8584 9.43599C32.8584 5.17099 29.9014 2.63399 24.0054 2.63399V2.63599ZM23.9884 6.06299C24.3841 6.06113 24.7796 6.08417 25.1724 6.13199L20.0814 11.223C19.8405 10.6781 19.723 10.0866 19.7374 9.49099C19.7374 7.42199 20.7794 6.06099 23.9884 6.06099V6.06299ZM24.0054 12.951C23.6241 12.9527 23.2431 12.9313 22.8644 12.887L27.9644 7.78699C28.1963 8.32289 28.3073 8.90332 28.2894 9.48699C28.2894 11.5 27.3294 12.949 24.0054 12.949V12.951ZM41.8814 11.151H46.5684C46.4994 11.4763 46.3556 11.781 46.1484 12.041C45.1767 12.8326 43.9366 13.2178 42.6874 13.116C42.0586 13.1833 41.4228 13.1146 40.8229 12.9146C40.223 12.7147 39.673 12.3881 39.2104 11.957C38.7365 11.2619 38.5114 10.4271 38.5714 9.58799C38.4947 8.70873 38.7395 7.83151 39.2604 7.11899C39.9154 6.37899 41.0244 6.05999 42.6544 6.05999C43.6915 5.97412 44.7273 6.24047 45.5944 6.81599C45.8677 7.03307 46.072 7.3249 46.1824 7.65599H50.5294C50.4978 7.11046 50.3666 6.57532 50.1424 6.07699C49.1014 3.95999 46.6814 2.69999 42.5664 2.69999C38.9874 2.69999 36.5854 3.79199 35.2584 5.43899C34.382 6.62835 33.9321 8.07843 33.9814 9.55499C33.9247 11.065 34.363 12.5521 35.2294 13.79C36.5404 15.49 38.8754 16.326 41.6814 16.326C43.5469 16.4561 45.3997 15.9336 46.9224 14.848L47.0404 16.124H50.6514V8.31199H41.8814V11.151ZM60.9004 2.63299C55.0884 2.63299 52.0304 5.38799 52.0304 9.43299C52.0304 14.003 55.2384 16.321 60.9004 16.321C67.1334 16.321 69.7544 13.633 69.7544 9.43299C69.7544 5.17099 66.7974 2.63399 60.9004 2.63399V2.63299ZM60.8844 6.05999C61.2697 6.05885 61.6547 6.08089 62.0374 6.12599L56.9664 11.2C56.733 10.6611 56.6194 10.0781 56.6334 9.49099C56.6294 7.42199 57.6754 6.05999 60.8844 6.05999ZM60.9004 12.948C60.509 12.9497 60.1179 12.9269 59.7294 12.88L64.8464 7.76199C65.0871 8.30502 65.2023 8.89531 65.1834 9.48899C65.1854 11.5 64.2294 12.949 60.9004 12.949V12.948Z" fill="#9747FF"/>
</svg>
