<svg width="146" height="33" viewBox="0 0 146 33" fill="none" xmlns="http://www.w3.org/2000/svg">
<path d="M43.1853 21.8566C43.1853 22.5552 43.0418 23.0919 42.7551 23.4669C42.4757 23.842 42.0088 24.0294 41.3544 24.0294C40.7367 24.0294 40.2992 23.842 40.0418 23.4669C39.7919 23.0919 39.6669 22.5552 39.6669 21.8566V10.1986C39.6669 9.50002 39.7919 8.96326 40.0418 8.58826C40.2992 8.21326 40.7367 8.02576 41.3544 8.02576C42.0088 8.02576 42.4757 8.21326 42.7551 8.58826C43.0418 8.96326 43.1853 9.50002 43.1853 10.1986V21.8566Z" fill="black"/>
<path d="M44.2533 18.4707C44.2533 17.6912 44.3783 16.9559 44.6284 16.2647C44.8857 15.5662 45.268 14.9559 45.7754 14.4339C46.2901 13.9118 46.9298 13.4964 47.6945 13.1876C48.4666 12.8787 49.3709 12.7243 50.4077 12.7243C51.4004 12.7243 52.2791 12.8676 53.0438 13.1544C53.8085 13.4412 54.4519 13.842 54.9739 14.3567C55.4959 14.864 55.893 15.4706 56.1651 16.1764C56.4371 16.875 56.5732 17.6397 56.5732 18.4707C56.5732 19.2427 56.4444 19.9743 56.1871 20.6655C55.9298 21.3492 55.5437 21.9523 55.029 22.4743C54.5144 22.989 53.871 23.4007 53.0989 23.7096C52.3268 24.0111 51.4298 24.1618 50.4077 24.1618C49.4004 24.1618 48.5107 24.0184 47.7386 23.7316C46.9739 23.4375 46.3306 23.0368 45.8085 22.5294C45.2938 22.0148 44.904 21.4118 44.6394 20.7206C44.382 20.0221 44.2533 19.2721 44.2533 18.4707ZM47.9261 18.4707C47.9261 18.9559 47.9702 19.4192 48.0585 19.8603C48.1467 20.2941 48.2864 20.6765 48.4776 21.0074C48.6761 21.3382 48.9335 21.603 49.2496 21.8015C49.5659 21.9926 49.9518 22.0883 50.4077 22.0883C50.8268 22.0883 51.1908 22.0001 51.4996 21.8235C51.8158 21.6471 52.0732 21.4007 52.2717 21.0846C52.4776 20.7684 52.632 20.3897 52.7349 19.9486C52.8379 19.5 52.8893 19.0074 52.8893 18.4707C52.8893 17.9853 52.8415 17.5257 52.746 17.0919C52.6577 16.6508 52.5144 16.2647 52.3158 15.9338C52.1173 15.5956 51.86 15.3309 51.5437 15.1397C51.2349 14.9412 50.8562 14.842 50.4077 14.842C49.9592 14.842 49.5769 14.9375 49.2606 15.1287C48.9445 15.3199 48.6872 15.5809 48.4886 15.9118C48.2901 16.2427 48.1467 16.6287 48.0585 17.0699C47.9702 17.511 47.9261 17.978 47.9261 18.4707Z" fill="black"/>
<path d="M65.6266 21.9007C65.428 22.2683 65.1854 22.5808 64.8986 22.8382C64.6193 23.0955 64.3067 23.3088 63.9612 23.4779C63.6229 23.6396 63.259 23.761 62.8693 23.8419C62.4869 23.9154 62.0935 23.9522 61.6891 23.9522C61.0126 23.9522 60.395 23.8309 59.8361 23.5882C59.2773 23.3455 58.7957 22.9963 58.3913 22.5404C57.9942 22.0772 57.6854 21.511 57.4648 20.8419C57.2442 20.1727 57.1339 19.408 57.1339 18.5478C57.1339 17.7389 57.2369 16.9816 57.4428 16.2757C57.6486 15.5698 57.9464 14.9559 58.3362 14.4338C58.7333 13.9117 59.2185 13.5 59.7921 13.1985C60.3655 12.8971 61.02 12.7463 61.7553 12.7463C62.5935 12.7463 63.3362 12.9081 63.9832 13.2315C64.6376 13.5551 65.2002 14.0845 65.6708 14.8198V14.5331C65.6708 14.0037 65.8141 13.6066 66.1009 13.3419C66.395 13.0699 66.7994 12.9338 67.3141 12.9338C67.6229 12.9338 67.8839 12.9852 68.0972 13.0882C68.3104 13.1838 68.4795 13.3308 68.6045 13.5294C68.7296 13.7206 68.8178 13.9595 68.8693 14.2463C68.9281 14.5257 68.9574 14.8456 68.9574 15.2059V22.5956C68.9574 23.4926 68.8436 24.294 68.6156 24.9999C68.395 25.7058 68.0494 26.3015 67.5788 26.7867C67.1082 27.272 66.5053 27.6396 65.77 27.8897C65.0347 28.147 64.1597 28.2757 63.145 28.2757C62.4318 28.2757 61.7994 28.2427 61.2479 28.1764C60.7038 28.1177 60.2332 28.0257 59.8361 27.9007C59.4391 27.761 59.1377 27.6066 58.9317 27.4375C58.7333 27.2683 58.634 27.0477 58.634 26.7757C58.634 26.6213 58.656 26.4743 58.7001 26.3345C58.7443 26.1948 58.8104 26.0699 58.8986 25.9595C58.9942 25.8566 59.1156 25.7721 59.2627 25.7058C59.417 25.6471 59.6045 25.6176 59.8251 25.6176C60.0604 25.6176 60.2957 25.6323 60.531 25.6618C60.7736 25.6911 61.0237 25.7206 61.281 25.7499C61.5457 25.7867 61.8214 25.8198 62.1082 25.8492C62.4023 25.8786 62.7185 25.8934 63.0567 25.8934C63.4612 25.8934 63.8214 25.8529 64.1377 25.7721C64.4538 25.6911 64.7221 25.5478 64.9428 25.3419C65.1634 25.136 65.3325 24.8603 65.4501 24.5147C65.5678 24.1764 65.6266 23.7426 65.6266 23.2132V21.9007ZM65.6266 18.4706C65.6266 17.9338 65.5862 17.4448 65.5053 17.0037C65.4318 16.5625 65.303 16.1875 65.1192 15.8786C64.9354 15.5625 64.6891 15.3198 64.3803 15.1507C64.0714 14.9742 63.6854 14.886 63.2222 14.886C62.7663 14.886 62.3877 14.9779 62.0862 15.1617C61.7921 15.3455 61.5568 15.5993 61.3803 15.9227C61.2038 16.2463 61.0789 16.625 61.0053 17.0588C60.9391 17.4926 60.9061 17.9559 60.9061 18.4485C60.9061 19.5735 61.1046 20.4191 61.5016 20.9852C61.8986 21.5515 62.4758 21.8346 63.2332 21.8346C63.5861 21.8272 63.9061 21.761 64.1927 21.636C64.4869 21.5036 64.7406 21.3015 64.9538 21.0294C65.167 20.7573 65.3325 20.4117 65.4501 19.9926C65.5678 19.5735 65.6266 19.0662 65.6266 18.4706Z" fill="black"/>
<path d="M69.9705 18.4707C69.9705 17.6912 70.0954 16.9559 70.3454 16.2647C70.6028 15.5662 70.9851 14.9559 71.4925 14.4339C72.0073 13.9118 72.6469 13.4964 73.4116 13.1876C74.1837 12.8787 75.0881 12.7243 76.1249 12.7243C77.1175 12.7243 77.9962 12.8676 78.7609 13.1544C79.5256 13.4412 80.1689 13.842 80.691 14.3567C81.2131 14.864 81.6102 15.4706 81.8822 16.1764C82.1543 16.875 82.2903 17.6397 82.2903 18.4707C82.2903 19.2427 82.1616 19.9743 81.9043 20.6655C81.6469 21.3492 81.2609 21.9523 80.7462 22.4743C80.2314 22.989 79.5881 23.4007 78.816 23.7096C78.044 24.0111 77.1469 24.1618 76.1249 24.1618C75.1175 24.1618 74.2278 24.0184 73.4557 23.7316C72.691 23.4375 72.0476 23.0368 71.5256 22.5294C71.0109 22.0148 70.6212 21.4118 70.3564 20.7206C70.0991 20.0221 69.9705 19.2721 69.9705 18.4707ZM73.6432 18.4707C73.6432 18.9559 73.6874 19.4192 73.7756 19.8603C73.8638 20.2941 74.0035 20.6765 74.1947 21.0074C74.3932 21.3382 74.6505 21.603 74.9668 21.8015C75.2829 21.9926 75.669 22.0883 76.1249 22.0883C76.544 22.0883 76.908 22.0001 77.2168 21.8235C77.5329 21.6471 77.7903 21.4007 77.9888 21.0846C78.1947 20.7684 78.3491 20.3897 78.4521 19.9486C78.555 19.5 78.6065 19.0074 78.6065 18.4707C78.6065 17.9853 78.5587 17.5257 78.4631 17.0919C78.3749 16.6508 78.2314 16.2647 78.033 15.9338C77.8345 15.5956 77.577 15.3309 77.2609 15.1397C76.9521 14.9412 76.5734 14.842 76.1249 14.842C75.6763 14.842 75.2939 14.9375 74.9778 15.1287C74.6617 15.3199 74.4042 15.5809 74.2058 15.9118C74.0073 16.2427 73.8638 16.6287 73.7756 17.0699C73.6874 17.511 73.6432 17.978 73.6432 18.4707Z" fill="black"/>
<path d="M87.0201 9.00736C87.0201 9.25001 86.9649 9.46692 86.8546 9.6581C86.7443 9.84192 86.601 9.99629 86.4245 10.1214C86.2481 10.2464 86.0421 10.3419 85.8068 10.4081C85.579 10.4669 85.3437 10.4963 85.1009 10.4963C84.8436 10.4963 84.5973 10.4632 84.362 10.397C84.1341 10.3309 83.9319 10.2353 83.7554 10.1103C83.579 9.97794 83.4392 9.81986 83.3362 9.63604C83.2334 9.45221 83.1819 9.24265 83.1819 9.00736C83.1819 8.79412 83.2297 8.59927 83.3252 8.4228C83.4282 8.23898 83.5642 8.08089 83.7333 7.94853C83.9025 7.81619 84.1047 7.71324 84.34 7.63972C84.5753 7.56618 84.8326 7.52942 85.1121 7.52942C85.3547 7.52942 85.59 7.56251 85.8179 7.62868C86.0532 7.69486 86.2591 7.79044 86.4355 7.91545C86.612 8.04045 86.7518 8.19486 86.8546 8.37868C86.9649 8.56251 87.0201 8.77206 87.0201 9.00736ZM86.8546 21.8566C86.8546 22.5552 86.7113 23.0919 86.4245 23.4669C86.1451 23.8419 85.6782 24.0294 85.0238 24.0294C84.4062 24.0294 83.9686 23.8419 83.7113 23.4669C83.4613 23.0919 83.3362 22.5552 83.3362 21.8566V15.1066C83.3362 14.4081 83.4613 13.8713 83.7113 13.4963C83.9686 13.1214 84.4062 12.9338 85.0238 12.9338C85.6782 12.9338 86.1451 13.1214 86.4245 13.4963C86.7113 13.8713 86.8546 14.4081 86.8546 15.1066V21.8566Z" fill="black"/>
<path d="M91.9265 18.4485C91.9265 18.9412 91.9632 19.4007 92.0368 19.8272C92.1177 20.2537 92.25 20.6286 92.4338 20.9522C92.625 21.2683 92.875 21.5183 93.1838 21.7021C93.5 21.886 93.8897 21.9779 94.353 21.9779C94.7794 21.9779 95.136 21.8897 95.4231 21.7132C95.7167 21.5294 95.952 21.2794 96.129 20.9632C96.305 20.6396 96.4301 20.261 96.5035 19.8272C96.5845 19.3933 96.625 18.9227 96.625 18.4155C96.625 18.011 96.5958 17.5993 96.5365 17.1802C96.4781 16.7536 96.368 16.3676 96.2061 16.022C96.0443 15.6764 95.8202 15.3933 95.5332 15.1727C95.2461 14.9522 94.8715 14.8419 94.4081 14.8419C93.9449 14.8419 93.5515 14.9154 93.228 15.0625C92.9117 15.2095 92.6544 15.4338 92.4559 15.7353C92.2647 16.0367 92.1287 16.4155 92.0478 16.8713C91.9669 17.3198 91.9265 17.8456 91.9265 18.4485ZM91.9155 15.1066C92.0993 14.7169 92.3346 14.375 92.6214 14.0809C92.9081 13.7867 93.2243 13.5404 93.5699 13.3419C93.9155 13.1434 94.2758 12.9963 94.6507 12.9007C95.0334 12.7978 95.4118 12.7463 95.7864 12.7463C96.4631 12.7463 97.0739 12.8971 97.6179 13.1985C98.1619 13.5 98.625 13.9117 99.0071 14.4338C99.3967 14.9485 99.6951 15.5588 99.9012 16.2647C100.106 16.9632 100.21 17.7132 100.21 18.5147C100.21 19.3455 100.099 20.1066 99.8786 20.7978C99.6659 21.489 99.36 22.0845 98.9628 22.5845C98.5732 23.0772 98.1026 23.4632 97.5511 23.7426C97.0071 24.022 96.401 24.1617 95.7318 24.1617C94.9083 24.1617 94.1728 23.9706 93.5258 23.5882C92.8787 23.2059 92.3419 22.6691 91.9155 21.9779V25.9485C91.9155 26.647 91.7721 27.1838 91.4853 27.5588C91.2059 27.9338 90.739 28.1213 90.0845 28.1213C89.4669 28.1213 89.0294 27.9338 88.7721 27.5588C88.5221 27.1838 88.3971 26.647 88.3971 25.9485V15.1066C88.3971 14.408 88.5221 13.8713 88.7721 13.4963C89.0294 13.1213 89.4669 12.9338 90.0845 12.9338C90.739 12.9338 91.2059 13.1213 91.4853 13.4963C91.7721 13.8713 91.9155 14.408 91.9155 15.1066Z" fill="black"/>
<path d="M104.09 15.8898C104.09 16.1764 104.216 16.4007 104.465 16.5625C104.715 16.717 105.061 16.8456 105.502 16.9486C105.921 17.0441 106.351 17.1361 106.792 17.2243C107.234 17.3125 107.664 17.4155 108.083 17.5332C108.502 17.6434 108.895 17.7758 109.263 17.9301C109.63 18.0846 109.954 18.2794 110.233 18.5147C110.513 18.7427 110.733 19.0221 110.895 19.3529C111.057 19.6765 111.138 20.0662 111.138 20.522C111.138 21.0956 111.02 21.6067 110.785 22.0551C110.55 22.4964 110.215 22.8713 109.782 23.1802C109.355 23.489 108.844 23.728 108.248 23.8971C107.653 24.0662 106.995 24.1544 106.274 24.1618C105.591 24.1618 104.932 24.1177 104.299 24.0294C103.668 23.9486 103.105 23.8198 102.612 23.6434C102.127 23.4669 101.737 23.25 101.443 22.9926C101.149 22.728 101.002 22.4192 101.002 22.0662C101.002 21.7573 101.101 21.5184 101.3 21.3492C101.498 21.1802 101.752 21.0956 102.061 21.0956C102.179 21.0956 102.318 21.1176 102.48 21.1618C102.642 21.2059 102.818 21.2611 103.009 21.3272C103.2 21.3934 103.402 21.4669 103.616 21.5478C103.836 21.6213 104.064 21.6875 104.299 21.7463C104.594 21.8273 104.895 21.8934 105.204 21.9449C105.52 21.989 105.844 22.0111 106.175 22.0111C106.38 22.0111 106.583 21.9926 106.781 21.9559C106.98 21.9118 107.157 21.8493 107.311 21.7684C107.473 21.6802 107.605 21.5699 107.708 21.4375C107.811 21.3052 107.873 21.1434 107.896 20.9523C107.917 20.9081 107.936 20.864 107.95 20.8198C107.965 20.7758 107.973 20.7243 107.973 20.6655C107.973 20.4596 107.877 20.2757 107.686 20.114C107.502 19.9523 107.24 19.8235 106.903 19.728C106.336 19.5956 105.796 19.4743 105.281 19.364C104.767 19.2537 104.289 19.1361 103.848 19.0111C103.414 18.8861 103.016 18.7427 102.656 18.5809C102.303 18.4192 102.002 18.2206 101.752 17.9853C101.51 17.75 101.318 17.4669 101.178 17.1361C101.046 16.8052 100.98 16.4044 100.98 15.9338C100.98 15.4265 101.094 14.9743 101.321 14.5772C101.557 14.1728 101.892 13.8346 102.326 13.5625C102.76 13.2904 103.285 13.0846 103.903 12.9449C104.52 12.7978 105.219 12.7243 105.998 12.7243C107.395 12.7243 108.457 12.8934 109.186 13.2316C109.921 13.5625 110.289 13.9963 110.289 14.5332C110.289 14.8346 110.189 15.0662 109.991 15.2279C109.792 15.3824 109.553 15.4596 109.274 15.4596C109.127 15.4596 108.972 15.4339 108.81 15.3824C108.656 15.3236 108.469 15.2611 108.248 15.1949C108.027 15.1214 107.763 15.0589 107.454 15.0074C107.153 14.9486 106.777 14.9191 106.329 14.9191C105.991 14.9191 105.682 14.9338 105.402 14.9633C105.13 14.9926 104.895 15.0441 104.696 15.1176C104.505 15.1912 104.355 15.2904 104.245 15.4155C104.141 15.5405 104.09 15.6985 104.09 15.8898Z" fill="black"/>
<path d="M115.614 19.9374C115.614 20.283 115.658 20.5845 115.747 20.8419C115.842 21.0992 115.971 21.3162 116.133 21.4926C116.295 21.6618 116.482 21.7904 116.695 21.8786C116.916 21.9596 117.151 22 117.4 22C117.695 22 117.978 21.9559 118.25 21.8676C118.522 21.7794 118.761 21.6433 118.967 21.4595C119.18 21.2757 119.35 21.0441 119.475 20.7646C119.599 20.4853 119.662 20.1581 119.662 19.7831V15.1066C119.662 14.408 119.787 13.8713 120.037 13.4963C120.295 13.1214 120.732 12.9338 121.35 12.9338C122.004 12.9338 122.471 13.1214 122.75 13.4963C123.037 13.8713 123.18 14.408 123.18 15.1066V21.8566C123.18 22.5551 123.037 23.0919 122.75 23.4669C122.471 23.8419 122.004 24.0294 121.35 24.0294C120.732 24.0294 120.295 23.8419 120.037 23.4669C119.787 23.0919 119.662 22.5551 119.662 21.8566C119.508 22.1949 119.305 22.5037 119.055 22.7831C118.812 23.0625 118.526 23.3052 118.195 23.511C117.871 23.7096 117.511 23.8639 117.114 23.9742C116.725 24.0846 116.301 24.1397 115.846 24.1397C115.353 24.1397 114.879 24.0551 114.423 23.8861C113.975 23.7096 113.577 23.4522 113.232 23.1139C112.887 22.7684 112.611 22.3419 112.405 21.8346C112.199 21.3272 112.096 20.7353 112.096 20.0588V15.1066C112.096 14.408 112.221 13.8713 112.471 13.4963C112.728 13.1214 113.165 12.9338 113.783 12.9338C114.438 12.9338 114.904 13.1214 115.184 13.4963C115.471 13.8713 115.614 14.408 115.614 15.1066V19.9374Z" fill="black"/>
<path d="M124.777 15.1066C124.777 14.408 124.903 13.8713 125.153 13.4963C125.41 13.1213 125.847 12.9338 126.465 12.9338C127.12 12.9338 127.587 13.1213 127.866 13.4963C128.152 13.8713 128.296 14.408 128.296 15.1066C128.443 14.7536 128.642 14.4338 128.892 14.147C129.149 13.8529 129.44 13.6029 129.763 13.397C130.094 13.1912 130.451 13.0331 130.833 12.9227C131.215 12.8051 131.612 12.7463 132.024 12.7463C132.407 12.7463 132.781 12.7978 133.149 12.9007C133.524 12.9963 133.87 13.1544 134.186 13.375C134.509 13.5882 134.792 13.8603 135.035 14.1912C135.278 14.522 135.465 14.9191 135.598 15.3823C135.826 14.8897 136.094 14.4743 136.403 14.136C136.711 13.7978 137.047 13.5257 137.406 13.3198C137.767 13.1139 138.142 12.9669 138.532 12.8786C138.929 12.7904 139.325 12.7463 139.722 12.7463C140.193 12.7463 140.642 12.8309 141.068 12.9999C141.502 13.1691 141.88 13.4265 142.204 13.7721C142.535 14.1102 142.796 14.5404 142.987 15.0625C143.186 15.5771 143.285 16.1802 143.285 16.8713V21.8566C143.285 22.5551 143.142 23.0919 142.855 23.4668C142.576 23.8419 142.108 24.0294 141.454 24.0294C140.837 24.0294 140.399 23.8419 140.142 23.4668C139.892 23.0919 139.767 22.5551 139.767 21.8566V17.0257C139.767 16.6948 139.722 16.4007 139.635 16.1434C139.546 15.8786 139.421 15.6581 139.259 15.4816C139.105 15.2978 138.921 15.1617 138.708 15.0735C138.495 14.9779 138.266 14.9301 138.024 14.9301C137.722 14.9301 137.436 14.9779 137.164 15.0735C136.892 15.1691 136.653 15.3162 136.447 15.5147C136.248 15.7132 136.087 15.9669 135.961 16.2757C135.844 16.5845 135.785 16.9559 135.785 17.3897V21.8566C135.785 22.5551 135.641 23.0919 135.355 23.4668C135.076 23.8419 134.609 24.0294 133.954 24.0294C133.336 24.0294 132.899 23.8419 132.642 23.4668C132.391 23.0919 132.266 22.5551 132.266 21.8566V17.2352C132.266 16.4779 132.108 15.9044 131.793 15.5147C131.483 15.125 131.061 14.9301 130.524 14.9301C130.208 14.9301 129.913 14.9816 129.641 15.0845C129.369 15.1875 129.134 15.3382 128.935 15.5368C128.737 15.7353 128.579 15.9816 128.461 16.2757C128.351 16.5698 128.296 16.9081 128.296 17.2904V21.8566C128.296 22.5551 128.152 23.0919 127.866 23.4668C127.587 23.8419 127.12 24.0294 126.465 24.0294C125.847 24.0294 125.41 23.8419 125.153 23.4668C124.903 23.0919 124.777 22.5551 124.777 21.8566V15.1066Z" fill="black"/>
<path d="M16.7293 22.1471C13.6106 22.1471 11.0823 19.6188 11.0823 16.5C11.0823 13.3812 13.6106 10.853 16.7293 10.853C19.8481 10.853 22.3764 13.3812 22.3764 16.5C22.3764 19.6188 19.8481 22.1471 16.7293 22.1471Z" fill="#2A2A2A"/>
<path d="M5.78935 18.429C4.15288 18.7176 3.03117 20.2984 3.65935 21.8368C4.53638 23.9846 5.93556 25.8982 7.7495 27.3935C10.3433 29.5316 13.6148 30.6741 16.9758 30.6155C20.3367 30.5568 23.5665 29.3008 26.0841 27.0734C27.8447 25.5158 29.1762 23.5545 29.9778 21.3774C30.552 19.818 29.3757 18.2773 27.7301 18.0461C26.0847 17.8148 24.6072 19.0126 23.7944 20.462C23.3538 21.2476 22.7819 21.9603 22.0967 22.5665C20.6522 23.8446 18.7991 24.5651 16.8708 24.5988C14.9425 24.6324 13.0654 23.977 11.5772 22.7502C10.8712 22.1682 10.2748 21.4759 9.80703 20.7061C8.94417 19.286 7.42582 18.1405 5.78935 18.429Z" fill="#EF6767"/>
<path d="M30.7378 18.2642C30.8099 17.6862 30.847 17.0974 30.847 16.5C30.847 8.70301 24.5263 2.38232 16.7293 2.38232C8.93238 2.38232 2.61169 8.70301 2.61169 16.5C2.61169 17.2667 2.67282 18.0192 2.79048 18.7529C3.43893 17.8651 4.451 17.2315 5.54417 17.0387C6.72694 16.8301 7.80189 17.117 8.71077 17.6532C8.65708 17.2765 8.62929 16.8915 8.62929 16.5C8.62929 12.0265 12.2558 8.39992 16.7293 8.39992C21.2028 8.39992 24.8294 12.0265 24.8294 16.5C24.8294 16.7949 24.8136 17.0862 24.7829 17.373C25.6726 16.8052 26.7371 16.4808 27.9266 16.648C29.0255 16.8025 30.0588 17.4001 30.7378 18.2642Z" fill="#6EC11C"/>
</svg>
